<?xml version="1.0" encoding="utf-8"?>
<!-- Generator: Adobe Illustrator 25.2.1, SVG Export Plug-In . SVG Version: 6.00 Build 0)  -->
<svg version="1.1" id="Calque_1" xmlns="http://www.w3.org/2000/svg" xmlns:xlink="http://www.w3.org/1999/xlink" x="0px" y="0px"
	 viewBox="0 0 100 100" style="enable-background:new 0 0 100 100;" xml:space="preserve">
<style type="text/css">
	.st0{fill:#0066FF;}
	.st1{fill:#FFFFFF;}
</style>
<circle class="st0" cx="50" cy="50" r="50"/>
<path id="路径_2_" class="st1" d="M71.8,34.2c1.4-8.8-2.6-13.5-12-14.2h-13c-2.4-0.2-4.6,1.5-5.1,3.9l-1,3.6l11.3-0.4
	c2.5-0.5,5.7,1.5,7.5,5.1c2,4,1.3,7.6-1.4,9c-2.6,1.3-6.2-0.1-8.2-4.1c-1.5-3-1.6-5.7-0.4-7.6l-9.4,0.3l-6.7,22.9l14.1-0.6
	c3.4-0.8,7.6,1.9,10,6.6c2.7,5.2,2,10-1.5,11.9c-3.5,1.9-8.5,0-11.1-5.2c-2-4-2.1-7.6-0.6-10.2l-11.8,0.5c0,0-4.3,15.1-4.4,15.7
	c-0.2,0.8-0.3,1.6-0.4,2.5c0,3.5,2.8,6.3,6.3,6.3h1.5h8.2c12.5-0.7,20.7-6.6,24.6-17.6c1.7-8.3-1.2-13.3-8.8-14.8l0.1-0.3
	C65.6,45.5,69.6,41.2,71.8,34.2z"/>
</svg>
