<?xml version="1.0" standalone="no"?>
<!DOCTYPE svg PUBLIC "-//W3C//DTD SVG 20010904//EN"
 "http://www.w3.org/TR/2001/REC-SVG-20010904/DTD/svg10.dtd">
<svg version="1.0" xmlns="http://www.w3.org/2000/svg"
 width="939.000000pt" height="940.000000pt" viewBox="0 0 939.000000 940.000000"
 preserveAspectRatio="xMidYMid meet">

<g transform="translate(0.000000,940.000000) scale(0.100000,-0.100000)"
fill="#000000" stroke="none">
<path d="M4355 9250 c-1038 -85 -1986 -496 -2745 -1192 -1088 -997 -1628
-2471 -1440 -3934 145 -1128 697 -2148 1565 -2894 691 -593 1532 -955 2480
-1067 212 -25 748 -25 960 0 564 67 1050 208 1531 446 907 447 1637 1176 2079
2076 738 1501 597 3288 -368 4649 -323 457 -731 851 -1197 1160 -215 143 -289
186 -506 294 -466 232 -983 384 -1529 447 -165 19 -665 28 -830 15z m-135
-2540 c1241 -75 2396 -379 3483 -917 265 -131 304 -162 365 -291 35 -73 37
-82 36 -177 0 -78 -5 -112 -22 -155 -62 -155 -207 -263 -372 -277 -99 -8 -151
8 -372 116 -1001 488 -1944 741 -3098 833 -201 16 -880 16 -1075 0 -377 -31
-649 -66 -952 -123 -212 -39 -288 -37 -386 9 -93 43 -169 117 -215 211 -36 72
-37 79 -37 180 0 101 2 110 36 182 45 94 116 167 202 208 133 63 828 167 1342
200 189 12 872 13 1065 1z m-15 -1580 c1019 -72 1941 -323 2844 -773 257 -128
303 -163 353 -265 30 -60 33 -75 33 -152 0 -71 -5 -95 -27 -142 -34 -72 -103
-142 -176 -176 -49 -23 -70 -27 -147 -27 l-90 1 -220 111 c-757 381 -1500 602
-2345 697 -267 30 -486 39 -844 33 -459 -7 -770 -40 -1190 -124 -210 -41 -274
-41 -360 1 -71 35 -148 119 -175 191 -45 121 -19 260 66 355 63 70 114 97 239
125 344 78 846 139 1299 159 125 5 585 -4 740 -14z m-23 -1415 c844 -69 1630
-297 2356 -683 188 -99 235 -136 268 -206 60 -130 11 -278 -116 -350 -75 -42
-170 -44 -245 -5 -28 14 -124 64 -215 112 -625 326 -1324 527 -2065 592 -213
19 -667 22 -865 5 -286 -23 -555 -65 -825 -126 -122 -28 -171 -26 -240 8 -78
39 -133 114 -149 201 -16 89 35 207 113 261 90 63 619 159 1061 195 180 14
729 12 922 -4z"/>
</g>
</svg>
