<?xml version="1.0" standalone="no"?>
<!DOCTYPE svg PUBLIC "-//W3C//DTD SVG 20010904//EN"
 "http://www.w3.org/TR/2001/REC-SVG-20010904/DTD/svg10.dtd">
<svg version="1.0" xmlns="http://www.w3.org/2000/svg"
 width="512.000000pt" height="512.000000pt" viewBox="0 0 512.000000 512.000000"
 preserveAspectRatio="xMidYMid meet">

<g transform="translate(0.000000,512.000000) scale(0.100000,-0.100000)"
fill="#000000" stroke="none">
<path d="M1060 4464 c-202 -43 -362 -205 -405 -409 -13 -60 -15 -277 -15
-1496 0 -974 3 -1444 11 -1485 37 -207 221 -388 429 -424 46 -8 494 -10 1520
-8 l1455 3 59 23 c166 63 271 167 335 330 l26 67 3 1457 c2 1269 0 1467 -13
1530 -43 209 -202 369 -410 413 -102 21 -2895 21 -2995 -1z m860 -1799 l-215
-215 -215 215 -215 215 215 215 215 215 215 -215 215 -215 -215 -215z m1710 0
l-215 -215 -215 215 -215 215 215 215 215 215 215 -215 215 -215 -215 -215z
m-855 425 l210 -210 -213 -213 -212 -212 -212 212 -213 213 210 210 c115 115
212 210 215 210 3 0 100 -95 215 -210z m3 -853 l212 -212 -215 -215 -215 -215
-210 210 c-115 115 -210 214 -210 220 0 10 410 425 420 425 3 0 101 -96 218
-213z"/>
</g>
</svg>
